<?xml version="1.0" encoding="UTF-8" standalone="no"?>
<!-- Created with Inkscape (http://www.inkscape.org/) -->

<svg
   sodipodi:docname="verkefni2.svg"
   id="svg5"
   version="1.1"
   viewBox="0 0 210 297"
   height="297mm"
   width="210mm"
   inkscape:version="1.2.1 (9c6d41e4, 2022-07-14)"
   xmlns:inkscape="http://www.inkscape.org/namespaces/inkscape"
   xmlns:sodipodi="http://sodipodi.sourceforge.net/DTD/sodipodi-0.dtd"
   xmlns="http://www.w3.org/2000/svg"
   xmlns:svg="http://www.w3.org/2000/svg">
  <sodipodi:namedview
     id="namedview7"
     pagecolor="#ffffff"
     bordercolor="#000000"
     borderopacity="0.25"
     inkscape:showpageshadow="2"
     inkscape:pageopacity="0.0"
     inkscape:pagecheckerboard="0"
     inkscape:deskcolor="#d1d1d1"
     inkscape:document-units="mm"
     showgrid="false"
     inkscape:zoom="0.61398577"
     inkscape:cx="624.60731"
     inkscape:cy="588.77586"
     inkscape:window-width="1594"
     inkscape:window-height="939"
     inkscape:window-x="12"
     inkscape:window-y="25"
     inkscape:window-maximized="0"
     inkscape:current-layer="layer1" />
  <defs
     id="defs2" />
  <g
     inkscape:label="Layer 1"
     inkscape:groupmode="layer"
     id="layer1">
    <g
       id="panel4604">
      <path
         style="fill:none;stroke:#000000;stroke-width:1"
         d="M 76.35 200.8 L 94.1125 200.8 L 94.1125 197.7 L 109.263 197.7 L 109.263 200.8 L 126.95 200.8 L 126.95 197.7 L 142.1 197.7 L 142.1 200.8 L 159.787 200.8 L 159.787 197.7 L 174.938 197.7 L 174.938 200.8 L 192.7 200.8"
         id="path15" />
      <path
         style="fill:none;stroke:#000000;stroke-width:1"
         d="M 192.7 200.8 L 192.7 223.45 L 189.6 223.45 L 189.6 238.3 L 192.7 238.3 L 192.7 260.95"
         id="path17" />
      <path
         style="fill:none;stroke:#000000;stroke-width:1"
         d="M 192.7 260.95 L 174.938 260.95 L 174.938 264.05 L 159.787 264.05 L 159.787 260.95 L 142.1 260.95 L 142.1 264.05 L 126.95 264.05 L 126.95 260.95 L 109.262 260.95 L 109.262 264.05 L 94.1125 264.05 L 94.1125 260.95 L 76.35 260.95"
         id="path19" />
      <path
         style="fill:none;stroke:#000000;stroke-width:1"
         d="M 76.35 260.95 L 76.35 238.3 L 79.45 238.3 L 79.45 223.45 L 76.35 223.45 L 76.35 200.8"
         id="path21" />
    </g>
    <g
       id="panel9184">
      <path
         style="fill:none;stroke:#000000;stroke-width:1"
         d="M 8.1 79.45 L 30.6 79.45 L 30.6 76.35 L 45.75 76.35 L 45.75 79.45 L 68.25 79.45"
         id="path24" />
      <path
         style="fill:none;stroke:#000000;stroke-width:1"
         d="M 68.25 79.45 L 68.25 94.1125 L 71.35 94.1125 L 71.35 109.263 L 68.25 109.263 L 68.25 126.95 L 71.35 126.95 L 71.35 142.1 L 68.25 142.1 L 68.25 159.787 L 71.35 159.787 L 71.35 174.938 L 68.25 174.938 L 68.25 189.6"
         id="path26" />
      <path
         style="fill:none;stroke:#000000;stroke-width:1"
         d="M 68.25 189.6 L 45.75 189.6 L 45.75 192.7 L 30.6 192.7 L 30.6 189.6 L 8.1 189.6"
         id="path28" />
      <path
         style="fill:none;stroke:#000000;stroke-width:1"
         d="M 8.1 189.6 L 8.1 174.938 L 5 174.938 L 5 159.787 L 8.1 159.787 L 8.1 142.1 L 5 142.1 L 5 126.95 L 8.1 126.95 L 8.1 109.262 L 5 109.262 L 5 94.1125 L 8.1 94.1125 L 8.1 79.45"
         id="path30" />
    </g>
    <g
       id="panel1976">
      <path
         style="fill:none;stroke:#000000;stroke-width:1"
         d="M 76.35 76.35 L 94.2625 76.35 L 94.2625 79.45 L 109.112 79.45 L 109.112 76.35 L 127.1 76.35 L 127.1 79.45 L 141.95 79.45 L 141.95 76.35 L 159.938 76.35 L 159.938 79.45 L 174.787 79.45 L 174.787 76.35 L 192.7 76.35"
         id="path33" />
      <path
         style="fill:none;stroke:#000000;stroke-width:1"
         d="M 192.7 76.35 L 192.7 94.2625 L 189.6 94.2625 L 189.6 109.112 L 192.7 109.112 L 192.7 127.1 L 189.6 127.1 L 189.6 141.95 L 192.7 141.95 L 192.7 159.938 L 189.6 159.938 L 189.6 174.787 L 192.7 174.787 L 192.7 192.7"
         id="path35" />
      <path
         style="fill:none;stroke:#000000;stroke-width:1"
         d="M 192.7 192.7 L 174.787 192.7 L 174.787 189.6 L 159.938 189.6 L 159.938 192.7 L 141.95 192.7 L 141.95 189.6 L 127.1 189.6 L 127.1 192.7 L 109.112 192.7 L 109.112 189.6 L 94.2625 189.6 L 94.2625 192.7 L 76.35 192.7"
         id="path37" />
      <path
         style="fill:none;stroke:#000000;stroke-width:1"
         d="M 76.35 192.7 L 76.35 174.787 L 79.45 174.787 L 79.45 159.938 L 76.35 159.938 L 76.35 141.95 L 79.45 141.95 L 79.45 127.1 L 76.35 127.1 L 76.35 109.112 L 79.45 109.112 L 79.45 94.2625 L 76.35 94.2625 L 76.35 76.35"
         id="path39" />
    </g>
    <g
       id="panel2141">
      <path
         style="fill:none;stroke:#000000;stroke-width:1"
         d="M 200.8 79.45 L 223.3 79.45 L 223.3 76.35 L 238.45 76.35 L 238.45 79.45 L 260.95 79.45"
         id="path42" />
      <path
         style="fill:none;stroke:#000000;stroke-width:1"
         d="M 260.95 79.45 L 260.95 94.1125 L 264.05 94.1125 L 264.05 109.263 L 260.95 109.263 L 260.95 126.95 L 264.05 126.95 L 264.05 142.1 L 260.95 142.1 L 260.95 159.787 L 264.05 159.787 L 264.05 174.938 L 260.95 174.938 L 260.95 189.6"
         id="path44" />
      <path
         style="fill:none;stroke:#000000;stroke-width:1"
         d="M 260.95 189.6 L 238.45 189.6 L 238.45 192.7 L 223.3 192.7 L 223.3 189.6 L 200.8 189.6"
         id="path46" />
      <path
         style="fill:none;stroke:#000000;stroke-width:1"
         d="M 200.8 189.6 L 200.8 174.938 L 197.7 174.938 L 197.7 159.787 L 200.8 159.787 L 200.8 142.1 L 197.7 142.1 L 197.7 126.95 L 200.8 126.95 L 200.8 109.262 L 197.7 109.262 L 197.7 94.1125 L 200.8 94.1125 L 200.8 79.45"
         id="path48" />
    </g>
    <g
       id="panel6053">
      <path
         style="fill:none;stroke:#000000;stroke-width:1"
         d="M 269.05 76.35 L 286.963 76.35 L 286.963 79.45 L 301.813 79.45 L 301.813 76.35 L 319.8 76.35 L 319.8 79.45 L 334.65 79.45 L 334.65 76.35 L 352.638 76.35 L 352.638 79.45 L 367.488 79.45 L 367.488 76.35 L 385.4 76.35"
         id="path51" />
      <path
         style="fill:none;stroke:#000000;stroke-width:1"
         d="m 385.4,76.35 v 17.9125 h -3.1 v 14.8495 h 6.275 c 4.02355,5.996 3.61576,11.992 0,17.988 H 382.3 v 14.85 h 6.275 c 4.41913,5.70139 4.57444,11.68704 0,17.988 H 382.3 v 14.849 h 3.1 V 192.7"
         id="path53"
         sodipodi:nodetypes="cccccccccccccc" />
      <path
         style="fill:none;stroke:#000000;stroke-width:1"
         d="M 385.4 192.7 L 367.488 192.7 L 367.488 189.6 L 352.637 189.6 L 352.637 192.7 L 334.65 192.7 L 334.65 189.6 L 319.8 189.6 L 319.8 192.7 L 301.812 192.7 L 301.812 189.6 L 286.962 189.6 L 286.962 192.7 L 269.05 192.7"
         id="path55" />
      <path
         style="fill:none;stroke:#000000;stroke-width:1"
         d="M 269.05 192.7 L 269.05 174.787 L 272.15 174.787 L 272.15 159.938 L 269.05 159.938 L 269.05 141.95 L 272.15 141.95 L 272.15 127.1 L 269.05 127.1 L 269.05 109.112 L 272.15 109.112 L 272.15 94.2625 L 269.05 94.2625 L 269.05 76.35"
         id="path57" />
    </g>
    <g
       id="panel9626">
      <path
         style="fill:none;stroke:#000000;stroke-width:1"
         d="M 76.35 8.1 L 94.1125 8.1 L 94.1125 5 L 109.263 5 L 109.263 8.1 L 126.95 8.1 L 126.95 5 L 142.1 5 L 142.1 8.1 L 159.787 8.1 L 159.787 5 L 174.938 5 L 174.938 8.1 L 192.7 8.1"
         id="path60" />
      <path
         style="fill:none;stroke:#000000;stroke-width:1"
         d="M 192.7 8.1 L 192.7 30.75 L 189.6 30.75 L 189.6 45.6 L 192.7 45.6 L 192.7 68.25"
         id="path62" />
      <path
         style="fill:none;stroke:#000000;stroke-width:1"
         d="M 192.7 68.25 L 174.938 68.25 L 174.938 71.35 L 159.787 71.35 L 159.787 68.25 L 142.1 68.25 L 142.1 71.35 L 126.95 71.35 L 126.95 68.25 L 109.262 68.25 L 109.262 71.35 L 94.1125 71.35 L 94.1125 68.25 L 76.35 68.25"
         id="path64" />
      <path
         style="fill:none;stroke:#000000;stroke-width:1"
         d="M 76.35 68.25 L 76.35 45.6 L 79.45 45.6 L 79.45 30.75 L 76.35 30.75 L 76.35 8.1"
         id="path66" />
    </g>
    <text
       xml:space="preserve"
       style="font-size:17.6917px;fill:#000000;stroke:none;stroke-width:1;stroke-dasharray:none;stroke-opacity:0.953368"
       x="108.57042"
       y="196.34766"
       id="text1287"
       transform="scale(0.8292536,1.2059037)"><tspan
         sodipodi:role="line"
         id="tspan1285"
         style="fill:#000000;stroke:none;stroke-width:1"
         x="108.57042"
         y="196.34766">Björn Kakali</tspan></text>
    <rect
       style="fill:none;stroke:#000000;stroke-width:1;stroke-dasharray:none;stroke-opacity:0.953368"
       id="rect1849"
       width="20"
       height="12"
       x="86.541214"
       y="50.067036"
       ry="0" />
    <ellipse
       style="fill:none;stroke:#000000;stroke-width:0.999991;stroke-dasharray:none;stroke-opacity:0.953368"
       id="path1942"
       cx="304.50827"
       cy="111.21823"
       rx="10.5"
       ry="10.500003" />
    <ellipse
       style="fill:none;stroke:#000000;stroke-width:0.999991;stroke-dasharray:none;stroke-opacity:0.953368"
       id="ellipse1944"
       cx="349.94171"
       cy="111.21823"
       rx="10.5"
       ry="10.500003" />
    <ellipse
       style="fill:none;stroke:#000000;stroke-width:0.999991;stroke-dasharray:none;stroke-opacity:0.953368"
       id="ellipse1976"
       cx="304.50827"
       cy="157.83177"
       rx="10.5"
       ry="10.500003" />
    <ellipse
       style="fill:none;stroke:#000000;stroke-width:0.999991;stroke-dasharray:none;stroke-opacity:0.953368"
       id="ellipse1978"
       cx="349.94171"
       cy="157.83177"
       rx="10.5"
       ry="10.500003" />
    <circle
       style="fill:none;stroke:#000000;stroke-width:1;stroke-dasharray:none;stroke-opacity:0.953368"
       id="path1982"
       cx="156.71758"
       cy="22.52182"
       r="1.4806733" />
    <circle
       style="fill:none;stroke:#000000;stroke-width:1;stroke-dasharray:none;stroke-opacity:0.953368"
       id="circle1984"
       cx="162.32855"
       cy="22.52182"
       r="1.4806733" />
    <circle
       style="fill:none;stroke:#000000;stroke-width:1;stroke-dasharray:none;stroke-opacity:0.953368"
       id="circle1986"
       cx="167.93953"
       cy="22.52182"
       r="1.4806733" />
    <circle
       style="fill:none;stroke:#000000;stroke-width:1;stroke-dasharray:none;stroke-opacity:0.953368"
       id="circle1988"
       cx="173.55051"
       cy="22.52182"
       r="1.4806733" />
    <circle
       style="fill:none;stroke:#000000;stroke-width:1;stroke-dasharray:none;stroke-opacity:0.953368"
       id="circle1990"
       cx="159.16982"
       cy="27.353491"
       r="1.4806733" />
    <circle
       style="fill:none;stroke:#000000;stroke-width:1;stroke-dasharray:none;stroke-opacity:0.953368"
       id="circle1992"
       cx="164.78079"
       cy="27.353491"
       r="1.4806733" />
    <circle
       style="fill:none;stroke:#000000;stroke-width:1;stroke-dasharray:none;stroke-opacity:0.953368"
       id="circle1994"
       cx="170.39177"
       cy="27.353491"
       r="1.4806733" />
    <circle
       style="fill:none;stroke:#000000;stroke-width:1;stroke-dasharray:none;stroke-opacity:0.953368"
       id="circle1996"
       cx="176.00275"
       cy="27.353491"
       r="1.4806733" />
    <circle
       style="fill:none;stroke:#000000;stroke-width:1;stroke-dasharray:none;stroke-opacity:0.953368"
       id="circle1998"
       cx="156.71758"
       cy="32.185162"
       r="1.4806733" />
    <circle
       style="fill:none;stroke:#000000;stroke-width:1;stroke-dasharray:none;stroke-opacity:0.953368"
       id="circle2000"
       cx="162.32855"
       cy="32.185162"
       r="1.4806733" />
    <circle
       style="fill:none;stroke:#000000;stroke-width:1;stroke-dasharray:none;stroke-opacity:0.953368"
       id="circle2002"
       cx="167.93953"
       cy="32.185162"
       r="1.4806733" />
    <circle
       style="fill:none;stroke:#000000;stroke-width:1;stroke-dasharray:none;stroke-opacity:0.953368"
       id="circle2004"
       cx="173.55051"
       cy="32.185162"
       r="1.4806733" />
  </g>
</svg>
